<svg width="32" height="32" viewBox="0 0 32 32" fill="none" xmlns="http://www.w3.org/2000/svg">
  <!-- Strawberry icon for FraiseQL (dark mode) -->
  <path d="M16 4C16 4 12 2 8 4C4 6 2 10 2 14C2 22 10 28 16 30C22 28 30 22 30 14C30 10 28 6 24 4C20 2 16 4 16 4Z" fill="#ff8787"/>
  <path d="M16 2L14 4M16 2L18 4M12 6L10 4M20 6L22 4" stroke="#4ade80" stroke-width="2" stroke-linecap="round"/>
  <!-- Seeds -->
  <circle cx="10" cy="14" r="1" fill="#18181b"/>
  <circle cx="14" cy="18" r="1" fill="#18181b"/>
  <circle cx="18" cy="14" r="1" fill="#18181b"/>
  <circle cx="22" cy="18" r="1" fill="#18181b"/>
  <circle cx="12" cy="22" r="1" fill="#18181b"/>
  <circle cx="20" cy="22" r="1" fill="#18181b"/>
  <circle cx="16" cy="12" r="1" fill="#18181b"/>
</svg>
